<?xml version="1.0"?><svg width="640" height="480" xmlns="http://www.w3.org/2000/svg">
 <title>black Star Glasses</title>
 <metadata id="metadata7">image/svg+xml</metadata>
 <g>
  <title>Layer 1</title>
  <path id="path2830" fill="#000000" stroke="#000000" stroke-width="5" d="m477.754181,136.046173c-42.19635,0.300934 -82.858978,14.368439 -124.277008,19.993927c-17.286041,2.347977 -35.102264,2.923218 -52.417328,0.740295c-23.022339,-2.902878 -45.31189,-10.61348 -68.31897,-14.069992c-20.560959,-3.087051 -41.378845,-6.312485 -62.068909,-6.440765c-36.157608,-0.228561 -71.126953,11.84523 -106.572113,18.3647c0,11.057938 -2.106987,25.252411 3.192696,33.025177c5.466736,8.016647 14.688057,15.348831 17.07975,26.212418c5.671722,25.765427 13.725029,51.021652 24.021988,75.234055c5.003555,11.76651 14.447586,19.969757 24.993805,25.620636c25.396255,13.607819 55.454422,15.6091 83.314484,11.329651c39.675537,-6.094055 61.200836,-37.844299 77.622498,-74.122864c6.146332,-14.746826 6.832184,-31.766785 14.927246,-45.245041c4.807434,-8.003922 15.972443,-4.634933 23.951111,-4.6642c7.979919,-0.02919 14.743713,14.125931 17.218933,23.548294c8.764496,33.343887 23.376587,68.720901 52.418579,86.191574c43.368164,26.090485 111.6922,21.21048 139.830627,-25.842896c11.011902,-18.415466 14.052856,-40.758621 19.577759,-61.607147c3.363525,-12.693497 6.368958,-27.826385 18.329895,-34.804245c4.826416,-2.816574 1.438904,-14.053543 2.151306,-20.585663c0.777039,-7.116287 2.274048,-13.412277 -7.220642,-14.809097c-16.559631,-2.439407 -32.62323,-9.855423 -49.571289,-12.365906c-16.061096,-2.3797 -31.796936,-5.818451 -48.184418,-5.702911zm-278.963943,11.847778c11.978683,-0.080017 23.905533,0.854599 35.547623,3.480682c69.36676,15.648453 70.76886,46.130112 42.212769,109.149353c-23.269012,51.349243 -71.471161,64.215454 -120.041519,51.906738c-22.390839,-5.672485 -37.700211,-22.341858 -44.920837,-45.168884c-7.621811,-24.093002 -13.385902,-49.689514 -12.08123,-75.013046c1.748833,-33.90773 37.709053,-38.673553 63.458351,-41.763062c11.815475,-1.417175 23.847351,-2.510513 35.824844,-2.591782zm253.275314,0c11.978729,0.081268 24.01062,1.174606 35.826111,2.591782c25.747986,3.089508 61.710815,7.855331 63.457092,41.763062c1.304626,25.323532 -4.459473,50.920044 -12.081177,75.013046c-7.220764,22.827026 -22.53009,39.496399 -44.919617,45.168884c-48.569122,12.308716 -96.772522,-0.557495 -120.042847,-51.906738c-28.556061,-63.019241 -27.152679,-93.5009 42.21405,-109.149353c11.642151,-2.626053 23.56897,-3.560699 35.546387,-3.480667l0,-0.000015z"/>
 </g>
</svg>